<?xml version="1.0" standalone="no"?>
<!DOCTYPE svg PUBLIC "-//W3C//DTD SVG 20010904//EN"
 "http://www.w3.org/TR/2001/REC-SVG-20010904/DTD/svg10.dtd">
<svg version="1.0" xmlns="http://www.w3.org/2000/svg"
 width="1024.000000pt" height="1024.000000pt" viewBox="0 0 1024.000000 1024.000000"
 preserveAspectRatio="xMidYMid meet">

<g transform="translate(0.000000,1024.000000) scale(0.100000,-0.100000)"
fill="#000000" stroke="none">
<path d="M5005 9503 c-371 -21 -691 -78 -942 -168 -54 -19 -165 -69 -248 -110
-427 -213 -628 -463 -770 -956 -70 -242 -99 -483 -93 -761 3 -150 4 -158 27
-182 30 -32 34 -32 74 -2 49 37 149 82 216 96 54 11 66 11 105 -4 25 -9 64
-37 88 -62 49 -51 65 -53 149 -23 67 25 131 75 148 117 7 17 32 44 56 61 24
17 66 60 94 95 29 36 55 66 60 68 5 2 78 69 162 150 168 160 198 186 369 315
270 204 649 440 990 617 113 58 222 116 242 128 l38 22 172 -69 c480 -190 710
-326 939 -554 126 -126 199 -224 277 -371 49 -92 124 -268 136 -321 l6 -26
-54 19 c-220 74 -582 19 -726 -110 -106 -95 -70 -212 65 -212 28 0 109 12 180
26 108 22 165 27 337 30 114 3 218 8 232 14 22 8 25 6 30 -26 8 -40 14 -41 49
-13 48 37 50 67 33 503 -9 222 -21 438 -26 482 -30 240 -116 403 -302 579
-298 282 -782 497 -1262 560 -65 8 -142 22 -170 30 -84 24 -222 44 -376 55
-138 9 -193 10 -305 3z"/>
<path d="M4766 7644 c-150 -28 -250 -92 -263 -167 -4 -29 -1 -40 20 -60 38
-38 87 -47 272 -47 219 0 355 -13 551 -50 207 -40 262 -45 308 -30 78 25 85
95 16 172 -63 72 -187 128 -375 170 -122 27 -415 34 -529 12z"/>
<path d="M4895 7137 c-56 -22 -75 -38 -97 -80 -46 -86 -34 -468 18 -574 32
-66 85 -95 174 -95 101 0 172 55 203 156 19 64 15 376 -6 448 -21 69 -57 115
-112 139 -46 21 -134 24 -180 6z m69 -150 c0 -58 -18 -81 -40 -53 -29 40 -11
111 26 104 11 -3 15 -16 14 -51z"/>
<path d="M6902 7116 c-36 -33 -37 -36 -41 -118 -7 -150 26 -430 61 -510 38
-89 116 -128 180 -91 82 47 104 138 95 382 -7 182 -21 251 -64 301 -35 43 -93
70 -148 70 -38 0 -52 -6 -83 -34z m46 -121 c3 -43 -17 -83 -36 -71 -17 11 -25
71 -12 96 18 35 45 21 48 -25z"/>
<path d="M6290 5747 c-101 -42 -218 -49 -319 -18 -111 34 -161 26 -161 -24 0
-81 227 -148 391 -116 140 28 288 106 273 144 -7 18 -64 47 -91 46 -10 0 -52
-14 -93 -32z"/>
<path d="M3420 3930 c-55 -5 -118 -17 -150 -29 -221 -84 -539 -364 -708 -624
-98 -151 -212 -410 -280 -632 -110 -360 -152 -656 -155 -1087 -1 -256 7 -313
60 -410 95 -174 338 -236 1010 -259 434 -14 3735 -6 3923 10 538 46 704 127
755 368 28 132 16 494 -26 788 -70 492 -260 1022 -464 1298 -219 295 -545 527
-793 564 -34 6 -62 8 -62 7 0 -2 27 -17 60 -34 79 -40 138 -94 162 -148 61
-136 13 -491 -95 -712 -49 -102 -143 -202 -227 -243 -121 -59 -191 -69 -484
-75 -375 -6 -514 14 -676 99 -146 76 -243 172 -395 391 -309 445 -406 553
-570 634 -176 86 -517 123 -885 94z"/>
</g>
</svg>
